<?xml version="1.0" encoding="UTF-8"?>
<!DOCTYPE svg PUBLIC "-//W3C//DTD SVG 1.1//EN" "http://www.w3.org/Graphics/SVG/1.1/DTD/svg11.dtd">
<!-- Creator: CorelDRAW 2018 (64-Bit) -->
<svg xmlns="http://www.w3.org/2000/svg" xml:space="preserve" width="13.2783in" height="7.74739in" version="1.1" style="shape-rendering:geometricPrecision; text-rendering:geometricPrecision; image-rendering:optimizeQuality; fill-rule:evenodd; clip-rule:evenodd"
viewBox="0 0 525.1 306.38"
 xmlns:xlink="http://www.w3.org/1999/xlink">
 <defs>
  <style type="text/css">
   <![CDATA[
    .fil0 {fill:#514C51}
   ]]>
  </style>
 </defs>
 <g id="Katman_x0020_1">
  <metadata id="CorelCorpID_0Corel-Layer"/>
  <g>
   <path class="fil0" d="M117.12 132.58c3.92,-0.2 16.07,-10.34 20.78,-13.41 3.77,-2.46 6.66,-5.35 11.45,-6.22 1.04,-0.79 8.75,2.18 12.59,2.25 7.48,0.14 8.86,0.06 16.01,-1.11 3.4,-1.69 8.05,-2.17 11.83,-3.34 8.34,-2.59 16.92,-5.38 25.07,-8.54 7.69,-2.98 17.54,-6.14 25.5,-8.57l13.09 -4.19c-1.32,3.09 -5.31,6.36 -7.86,8.9 -11.71,11.66 -31.47,32.93 -41.64,45.84 -3.41,4.32 -7.42,8.49 -10.81,12.82 -11.52,14.72 -15.42,13.46 -28.9,21.72 -8.02,4.91 -16.21,8.32 -24.59,12.24 -16.8,7.85 -38.52,5.24 -60.97,14.74 -8.34,3.53 -18.9,9.01 -26.65,13.62 -21.17,16.33 -59.5,39.66 -50.74,71.46 2.89,10.5 9.07,15.05 20.44,15.56 23.13,1.04 46.84,-15.24 64.81,-28.85 11.6,-8.79 24.06,-22.77 33.83,-33.55 4.47,-4.93 12.12,-12.97 15.92,-18.12 15.84,-17.43 30.88,-35.66 47.45,-52.49 2.85,-2.89 8.73,-6.55 13.36,-6.98 -0.54,3.07 -0.58,2.09 -2.09,4.34 -3.29,4.89 -0.68,8.17 4.41,10.14 7.61,2.95 24.07,-0.03 32.2,-2.75 23.04,-7.71 31.03,-3.09 51.53,-8.75 3.28,-0.66 6.6,-1.33 9.88,-2.01 2.08,-0.43 6.28,-1.52 8.56,-1.67 5.35,10.87 16.86,13.42 27.37,8.09 -5.76,-4.83 -23.73,3.69 -22.6,-9.26 3.05,-1.3 14.42,-6.3 17.02,-5.91 0.97,3.85 3.73,10.23 6.12,13.04l2.8 3.38c1.35,0.37 7.61,5.23 9.81,6.83 2.34,1.7 8.24,4.97 10.81,5.85 -0.37,2.11 -1.13,2.47 -1.23,4.7 2.29,-0.63 2.83,-1.62 3.85,-3.59 2.92,0.26 5.13,1.38 7.93,2.33 2.83,0.97 4.74,1.07 7.33,1.66 -0.57,3.36 -1.09,3.07 -2.85,4.71 -2.72,2.63 -5.31,4.46 -8.76,7.41 -6.95,5.94 -17.51,17.87 -24.43,21.65 1.05,-3.58 2.59,-4.37 4.97,-7.75 3.82,-5.43 10.36,-18.04 12.82,-24.02 -0.23,-1.09 -0.12,-0.72 -0.96,-1.4 -1.21,0.55 -9.36,16.19 -11.37,19.62 -3.07,5.23 -7.26,10.25 -10.12,14.89 -9.61,15.58 -39.68,39.94 -53.5,54.19 -1.69,1.91 -3.18,2.58 -2.94,5.72 5.79,1.04 57.08,-51.2 64.38,-57.84 0.42,-0.98 36.22,-33.44 36.33,-33.51 3.66,-2.54 21.72,0.48 25.27,1.6 -3.11,8.11 -23.15,8.32 -7.79,20.2 16.21,12.54 61.72,6.65 23.86,21.62 -5.32,2.1 -12.77,3.89 -16.69,8.25 -4.92,5.56 -3.3,13.28 2.67,14.13 -1.33,-5.96 -3.85,-9.98 2.62,-13.62 7.92,-4.46 17.53,-6.08 25.09,-9.59 1.9,-0.88 3.42,-1.71 4.86,-2.76 6.1,-4.44 -0.61,-7.76 -4.47,-9.42 -7.67,-3.31 -18,-5.33 -26.16,-7.37 -21.09,-4.72 -12.07,-11.08 -1.04,-18.44 20.36,-10.66 -1.25,-6.79 -19.05,-8.39l-2.34 -1.11c0.87,-2.18 12.72,-11.52 15.58,-14.3 1.57,-1.53 2.94,-3.5 5.06,-5.29 4.75,-3.77 10.35,-10.17 14.28,-14.25 5.5,-5.71 9.35,-8.29 18.82,-10.18 3.17,-2.57 10,-4.39 15.07,-7.34 4.31,-2.5 11.19,-6.62 14.8,-8.49 11.03,-6.56 17.93,-14.02 22.04,-16.28 0.74,-3.78 0.56,-1.38 -0.51,-2.08 -4.32,3.6 -7.24,6.8 -12.38,9.88 -4.71,2.82 -9.24,6 -14.13,8.79 -7.39,4.22 -22.99,11.55 -30.86,13.57l37.45 -36.87c8.89,-7.73 16.65,-16.75 25.06,-24.04 2.76,-2.34 5.54,-4.78 8.17,-7.3 4.61,-4.41 9.22,-8.91 14.24,-12.89 9.01,-7.15 8.19,-0.11 10.64,1.95 0.34,-0.59 0.35,-0.42 0.59,-1.68 -0.08,-19.76 -18,2.85 -25.16,8.73 -1.88,1.58 -18.16,15.78 -18.92,16.03l-11.76 11.7c-1.42,1.33 -2.11,2.05 -3.54,3.38 -13.38,12.61 -28.31,28.93 -42.32,40.32 -7.74,6.3 -35.78,15.51 -40.28,8.33 -3.08,-4.91 -11.19,8.09 -16.66,7.32 4.11,-13.46 7.66,-31.45 -5.97,-40.16 -26.68,-14.4 -36.4,6.48 -39.32,29.41 -7.3,1.35 -12.59,9.45 -17.91,11.2 -8.28,2.72 -37.54,9.27 -41.47,8.11l12.39 -8.2c19.01,-15.93 -30.77,-13.49 -23.8,7.98l-4.17 1.71c-8.89,3.07 -40.04,12.22 -48.73,3.86 0.79,-8.59 17.98,-13.48 17.62,-18.66 -5.15,-1.13 -17.1,6.67 -22.67,7.64l19.02 -22.17c13.49,-14.89 24.37,-27.62 38.98,-42.95 24.46,-25.67 47.57,-21.56 77.47,-37.79 5.45,-2.96 11.05,-5.03 16.78,-8.23 13.21,-7.39 32.61,-20.5 34.11,-37.5 0.52,-5.91 -0.87,-12.76 -7.07,-14.71 -16.88,-0.76 -21.99,4.18 -35.94,11.4 -8.46,5.87 -16.29,11.67 -24.14,18.2 -8.27,6.88 -22.22,20.11 -29.01,28.61 -1.96,2.45 -3.87,4.25 -5.83,6.66 -4.91,6.04 -11.97,12.22 -17.64,17.59 -3.23,3.04 -40.34,14.4 -47.68,17.12 -14.1,5.23 -23.16,7.91 -37.33,11.23 -4.33,1.01 -10.78,1 -15.25,0.41 -13.07,-4.4 -12.06,-1.87 -21.23,3.41l-20.57 17.87zm150.76 -52.82l19.49 -21.58c12.96,-13.97 25.48,-25.68 40.47,-37.33 13.75,-10.68 61.23,-35.05 43.76,3.47 -10.34,26.83 -76.34,45.91 -103.72,55.43zm-14.71 86.03c-1.43,-6.77 17.49,-15.18 20.45,-12.17 3.4,5.3 -19.64,15.73 -20.45,12.17zm-104.53 25.26c4.96,-2.23 18.09,-10.25 23.76,-11.62 -0.81,1.95 -20.23,23.49 -22.7,25.79 -12.51,11.65 -25.35,29.89 -37.68,42.23l-10.61 10.79c-4.81,6.38 -13.36,13.52 -19.78,18.55 -78.5,61.55 -91.9,-1.92 -60.63,-28 0.77,-2.62 17.52,-15.46 19.26,-16.9 10.93,-9.06 31.02,-18.69 43.91,-24.69 23.55,-8.54 41.16,-5.65 64.47,-16.14zm213.25 -28.5c-4.18,3.7 -22.48,6.73 -28.05,7.68 -2.09,-5.07 -7.09,-8.24 -6.56,-13.83 4,-2.88 11.7,-4.83 10.95,-10.41 -6.82,-1.4 -6.43,0.57 -12.22,0.96 0.5,-21.58 18.7,-36.42 35.28,-22.54 9.58,8.02 6.69,32.74 0.6,38.15zm-24.93 11.9c0.94,-2.68 20.16,-6.99 23.95,-7.3 -1.04,3.25 -1.88,5.81 -3.01,9.37 -2.83,8.96 -3.58,7.17 -6.3,7.02l-14.64 -9.08zm20.26 11.8c-0.03,-4.95 3.99,-10.86 5.72,-16.29 1.5,-4.69 14.5,-13.69 19.78,-11.38 7.36,3.23 22.71,-3.78 31.69,-4.65 -0.92,2.09 -1.32,2.37 -2.7,3.58 -0.64,0.56 -1.05,0.85 -1.48,1.27 -8.75,8.56 -16.44,15.83 -25.4,23.94 -5.62,5.08 -8.98,9.58 -16.58,6.41 -1.21,-0.5 -9.96,-2.94 -11.04,-2.88z"/>
  </g>
  <path class="fil0" d="M525.1 64.73c0,0 -1.17,-1.54 -1.4,-0.46 -2.61,11.89 -25.94,40.51 -37.38,49.07l0.51 2.08c0,0.01 32.38,-23.56 38.28,-50.69z"/>
 </g>
</svg>
