<svg width="327" height="69" viewBox="0 0 327 69" fill="none" xmlns="http://www.w3.org/2000/svg">
<path fill-rule="evenodd" clip-rule="evenodd" d="M16.3752 0.000125664C18.8956 5.78283 21.2516 8.3925 17.7953 16.4882C14.1504 25.0258 10.4701 26.4523 12.8845 28.7437C15.301 31.0347 20.0532 31.9743 20.0532 31.9743C20.0532 31.9743 19.9552 33.4769 18.9289 34.9057C17.9051 36.3322 18.0733 38.4263 20.1135 39.6597C21.5906 40.5523 21.8843 40.7127 21.9354 40.7309C21.9105 40.7531 21.1406 41.4586 20.6813 42.9906C20.1736 44.6879 21.2758 46.3291 23.1291 46.8642C24.9841 47.3991 25.7541 47.5966 26.1511 48.1407C26.6344 48.8026 26.2649 48.9335 26.1263 51.6433C25.9876 54.354 25.4519 56.9701 29.0424 59.0166C32.6338 61.0639 38.8979 59.263 44.0687 56.0878C48.5037 53.3636 59.537 49.8137 68.001 54.4028C62.0405 62.0237 53.1716 67.3868 42.7911 68.6957C21.9648 71.3238 2.94226 56.6359 0.305173 35.8908C-1.53712 21.3992 5.10436 7.7863 16.375 0L16.3752 0.000125664Z" fill="white"/>
<path d="M17.2137 12.7655C17.2137 4.24369 12.6784 0 6.45943 0C3.88252 0 1.51188 0.54752 0 1.3005V24.2305C1.33993 24.9492 3.81377 25.531 6.45943 25.531C12.6783 25.531 17.2137 21.2872 17.2137 12.7655ZM14.2245 12.7655C14.2245 19.9183 10.823 22.9985 6.59695 22.9985C5.05088 22.9985 3.64206 22.759 2.98932 22.4167V3.11434C3.77958 2.73785 5.18826 2.53252 6.59695 2.53252C10.823 2.53252 14.2245 5.61268 14.2245 12.7655ZM30.2355 6.46833C29.7201 6.39984 29.1017 6.33148 28.4145 6.33148C25.872 6.33148 23.3295 6.879 21.6459 7.63198V25.1546H24.532V9.30897C25.391 8.93248 26.7653 8.72715 28.0365 8.72715C28.6207 8.72715 29.2048 8.76133 29.6857 8.864L30.2354 6.46833H30.2355ZM34.7364 23.4092C34.7364 22.314 33.8431 21.4242 32.7436 21.4242C31.6442 21.4242 30.7508 22.314 30.7508 23.4092C30.7508 24.5043 31.6442 25.3942 32.7436 25.3942C33.8431 25.3942 34.7364 24.5043 34.7364 23.4092ZM52.431 2.90901V0.376491H39.7872V25.1546H42.7076V13.6555H51.6408V11.1913H42.7076V2.90913H52.431V2.90901ZM58.4781 17.1462C58.5124 20.7738 60.3678 23.3407 63.1508 23.3407C66.4149 23.3407 68.5108 19.884 68.5794 15.7087L58.4781 17.146V17.1462ZM62.0857 8.55599C60.6427 8.55599 59.0622 9.10351 58.2032 9.65116L57.2068 7.63198C58.4436 6.879 60.2647 6.33148 62.3606 6.33148C67.8922 6.33148 71.1907 9.8908 71.1907 15.9485C71.1907 21.6296 68.1327 25.5311 63.1164 25.5311C58.5467 25.5311 55.7293 21.6981 55.7293 16.7698C55.7293 16.3933 55.7293 15.9826 55.7636 15.5378L68.4075 13.7239C68.0983 9.78813 65.6244 8.55612 62.0856 8.55612L62.0857 8.55599ZM84.1094 6.46833C83.594 6.39984 82.9756 6.33148 82.2884 6.33148C79.7459 6.33148 77.2034 6.879 75.5198 7.63198V25.1546H78.4059V9.30897C79.2649 8.93248 80.6392 8.72715 81.9104 8.72715C82.4946 8.72715 83.0787 8.76133 83.5596 8.864L84.1093 6.46833H84.1094ZM112.283 25.1546V12.218C112.283 8.62448 109.775 6.33148 105.961 6.33148C103.247 6.33148 101.048 7.39247 99.9144 8.45333C98.918 7.28967 96.9252 6.33148 94.0391 6.33148C91.634 6.33148 89.435 6.879 87.6484 7.63198V25.1546H90.5345V9.30897C91.4621 8.93248 92.7334 8.65866 94.2109 8.65866C96.7878 8.65866 98.54 9.92498 98.54 12.0126V25.1546H101.392V10.233C102.285 9.27467 103.694 8.65866 105.412 8.65866C107.748 8.65866 109.432 10.0618 109.432 12.4575V25.1545H112.283L112.283 25.1546ZM130.425 24.2306V12.355C130.425 7.97429 127.71 6.33161 123.553 6.33161C121.251 6.33161 118.914 6.98192 117.506 7.63211L118.262 9.65128C119.464 9.06946 121.594 8.52194 123.312 8.52194C125.889 8.52194 127.71 9.37759 127.71 12.1154V13.5186C122.11 13.8266 116.406 14.6138 116.406 19.8843C116.406 23.3751 118.949 25.5313 124.034 25.5313C126.473 25.5313 129.119 24.9494 130.425 24.2308V24.2306ZM127.71 22.7933C127.057 23.1013 125.374 23.3751 123.965 23.3751C120.736 23.3751 119.121 21.9719 119.121 19.8158C119.121 15.9828 123.587 15.7431 127.71 15.5036V22.7933H127.71ZM149.631 25.1548V12.4578C149.631 8.59043 147.123 6.33173 142.244 6.33173C139.529 6.33173 137.227 6.87925 135.441 7.63223V25.1549H138.327V9.30923C139.22 8.96704 140.663 8.65891 142.278 8.65891C145.267 8.65891 146.779 10.2332 146.779 12.6974V25.1549H149.631L149.631 25.1548ZM180.691 25.1548V0.376617H177.702V11.1914H167.154V0.376617H164.165V25.1548H167.154V13.6556H177.702V25.1548H180.691ZM187.975 17.1464C188.009 20.7741 189.865 23.3409 192.648 23.3409C195.912 23.3409 198.008 19.8843 198.076 15.7089L187.975 17.1463V17.1464ZM191.583 8.55624C190.14 8.55624 188.559 9.10376 187.7 9.65141L186.704 7.63223C187.94 6.87925 189.762 6.33173 191.857 6.33173C197.389 6.33173 200.688 9.89105 200.688 15.9487C200.688 21.6299 197.63 25.5314 192.613 25.5314C188.044 25.5314 185.226 21.6984 185.226 16.7701C185.226 16.3936 185.226 15.9829 185.261 15.538L197.904 13.7242C197.595 9.78839 195.121 8.55637 191.582 8.55637L191.583 8.55624ZM216.355 20.2266C216.355 16.7699 213.675 15.7091 210.926 14.6823C208.865 13.9293 207.353 13.2449 207.353 11.2941C207.353 9.75408 208.624 8.55624 210.858 8.55624C212.301 8.55624 213.881 9.10376 214.74 9.65141L215.737 7.63223C214.5 6.87925 212.679 6.33173 210.583 6.33173C206.666 6.33173 204.433 8.4194 204.433 11.2942C204.433 14.6139 207.01 15.7776 209.621 16.7359C211.785 17.523 213.366 18.2759 213.366 20.2267C213.366 22.0405 211.785 23.2042 209.415 23.2042C207.937 23.2042 205.979 22.6224 204.982 22.0405L203.952 24.2309C205.292 24.9496 207.456 25.5314 209.449 25.5314C213.813 25.5314 216.355 23.4095 216.355 20.2267V20.2266ZM222.643 17.1464C222.677 20.7741 224.532 23.3409 227.315 23.3409C230.579 23.3409 232.675 19.8843 232.744 15.7089L222.643 17.1463V17.1464ZM226.25 8.55624C224.807 8.55624 223.227 9.10376 222.368 9.65141L221.371 7.63223C222.608 6.87925 224.429 6.33173 226.525 6.33173C232.057 6.33173 235.355 9.89105 235.355 15.9487C235.355 21.6299 232.297 25.5314 227.281 25.5314C222.711 25.5314 219.894 21.6984 219.894 16.7701C219.894 16.3936 219.894 15.9829 219.928 15.538L232.572 13.7242C232.263 9.78839 229.789 8.55637 226.25 8.55637L226.25 8.55624ZM253.874 25.1549V12.4579C253.874 8.59055 251.366 6.33186 246.487 6.33186C243.773 6.33186 241.471 6.87938 239.684 7.63236V25.155H242.57V9.30935C243.464 8.96717 244.907 8.65904 246.522 8.65904C249.511 8.65904 251.023 10.2334 251.023 12.6975V25.155H253.874L253.874 25.1549ZM273.94 15.9144C273.94 10.4386 271.191 6.33173 266.072 6.33173C260.952 6.33173 258.203 10.4386 258.203 15.9144C258.203 21.3902 260.952 25.5314 266.072 25.5314C271.191 25.5314 273.94 21.3902 273.94 15.9144ZM271.088 15.8802C271.088 20.124 269.439 23.1699 266.072 23.1699C262.704 23.1699 261.055 20.1239 261.055 15.8802C261.055 11.6364 262.704 8.65904 266.072 8.65904C269.439 8.65904 271.088 11.6365 271.088 15.8802ZM293.18 6.70822H290.019L285.587 19.816C285.141 21.0824 284.797 22.5882 284.797 22.5882H284.728C284.728 22.5882 284.385 21.0824 283.938 19.816L279.471 6.70822H276.345L283.113 25.1549H286.412L293.18 6.70822Z" transform="translate(33.8196 8.40771)" fill="white"/>
<path d="M10.5823 13.4329L6.15008 1.0439H4.44935L0 13.4329H1.56335L2.8175 9.82232H7.76505L9.03634 13.4329H10.5824H10.5823ZM7.42126 8.69285H3.16077L4.89582 3.67908C5.11912 3.01168 5.27379 2.25882 5.27379 2.25882H5.30811C5.30811 2.25882 5.46278 3.0118 5.68608 3.67908L7.42113 8.69285H7.42126ZM19.2062 13.4671V4.67158C18.5019 4.29509 17.4196 4.02126 16.2858 4.02126C13.726 4.02126 11.8364 5.45862 11.8364 8.69285C11.8364 11.4992 13.4856 13.0906 15.8049 13.0906C16.5264 13.0906 17.2995 12.9194 17.7977 12.6799V13.4671C17.7977 15.127 16.9559 16.0681 15.2895 16.0681C14.3274 16.0681 13.331 15.7772 12.747 15.4692L12.3004 16.5985C13.0048 16.9579 14.173 17.283 15.3927 17.283C17.7978 17.283 19.2065 15.8969 19.2065 13.4671H19.2062ZM17.7975 11.6018C17.3852 11.8243 16.6465 11.9613 16.028 11.9613C14.4132 11.9613 13.2621 10.849 13.2621 8.64157C13.2621 6.14324 14.5678 5.16783 16.1997 5.16783C16.8526 5.16783 17.471 5.30468 17.7974 5.45874V11.602L17.7975 11.6018ZM18.227 0.889705L17.3337 0.73564C17.179 1.71105 16.7667 2.22439 15.9078 2.22439C15.0488 2.22439 14.6193 1.71105 14.4648 0.73564L13.5715 0.889705C13.6574 2.29288 14.4991 3.18271 15.9078 3.18271C17.3165 3.18271 18.1411 2.29288 18.227 0.889705ZM23.2261 13.4328V4.20939H21.8003V13.4328H23.2261ZM31.7641 13.4328V12.2691H27.1773L31.6266 4.20939H25.3733V5.37304H29.5651L25.0984 13.4328H31.764H31.7641ZM46.0916 4.20939H44.5111L42.295 10.7633C42.0717 11.3964 41.8998 12.1494 41.8998 12.1494H41.8655C41.8655 12.1494 41.6937 11.3964 41.4704 10.7633L39.2371 4.20939H37.6738L41.0581 13.4328H42.7072L46.0916 4.20939ZM48.8918 9.42849C48.9089 11.2423 49.8366 12.5257 51.2281 12.5257C52.8601 12.5257 53.9081 10.7975 53.9424 8.70981L48.8918 9.42849ZM50.6956 5.13339C49.9741 5.13339 49.1838 5.40722 48.7544 5.68092L48.2562 4.67133C48.8746 4.29484 49.7851 4.02102 50.8331 4.02102C53.599 4.02102 55.2481 5.80067 55.2481 8.82944C55.2481 11.6701 53.7192 13.6208 51.2111 13.6208C48.9262 13.6208 47.5175 11.7043 47.5175 9.24011C47.5175 9.05187 47.5175 8.84653 47.5347 8.6241L53.8566 7.71718C53.7019 5.74928 52.4651 5.13327 50.6956 5.13327V5.13339ZM69.0258 12.9707V4.20939H67.5999V12.1151C67.2391 12.2691 66.4833 12.4231 65.6415 12.4231C64.2156 12.4231 63.5112 11.7728 63.5112 10.4039V4.20939H62.0683V10.3868C62.0683 12.6113 63.3396 13.6209 65.6416 13.6209C66.9988 13.6209 68.3216 13.33 69.0259 12.9706L69.0258 12.9707ZM64.7826 1.98487C64.7826 1.55711 64.4046 1.19771 63.958 1.19771C63.5114 1.19771 63.1334 1.55711 63.1334 1.98487C63.1334 2.41264 63.5114 2.77203 63.958 2.77203C64.4046 2.77203 64.7826 2.41264 64.7826 1.98487ZM67.9607 1.98487C67.9607 1.55711 67.5828 1.19771 67.1362 1.19771C66.6896 1.19771 66.3116 1.55711 66.3116 1.98487C66.3116 2.41264 66.6896 2.77203 67.1362 2.77203C67.5828 2.77203 67.9607 2.41264 67.9607 1.98487ZM77.4952 13.4328V12.2691H72.9083L77.3576 4.20939H71.1044V5.37304H75.2961L70.8294 13.4328H77.495H77.4952ZM83.3876 8.5046V7.23828H78.732V8.5046H83.3876ZM91.7711 12.9879L91.2729 11.9099C90.8606 12.2008 90.2422 12.4061 89.6238 12.4061C88.3181 12.4061 86.9782 11.3794 86.9782 8.79551C86.9782 6.2116 88.301 5.2191 89.6238 5.2191C90.2422 5.2191 90.8606 5.40735 91.2729 5.69826L91.7711 4.65449C91.2214 4.278 90.3967 4.02139 89.4691 4.02139C87.4935 4.02139 85.5006 5.42456 85.5006 8.81273C85.5006 12.2009 87.4935 13.6212 89.4691 13.6212C90.3967 13.6212 91.2042 13.3816 91.7711 12.9881V12.9879ZM90.6029 15.5718C90.6029 14.9044 90.1218 14.3911 88.696 14.3911C88.4383 14.3911 88.1463 14.4082 87.8198 14.4425L87.4763 15.1099C87.8198 15.0757 88.1292 15.0585 88.4039 15.0585C89.1083 15.0585 89.4691 15.1954 89.4691 15.5718C89.4691 16.0167 88.7819 16.2222 87.8027 16.2222C87.5106 16.2222 87.2186 16.2051 86.9093 16.1708L86.5314 16.8723C86.9953 16.9237 87.4419 16.9408 87.837 16.9408C89.5893 16.9408 90.6029 16.4788 90.6029 15.5718ZM94.7775 9.42861C94.7946 11.2424 95.7223 12.5259 97.1138 12.5259C98.7458 12.5259 99.7938 10.7976 99.8281 8.70993L94.7775 9.42861ZM96.5813 5.13352C95.8598 5.13352 95.0695 5.40734 94.6401 5.68104L94.1419 4.67145C94.7603 4.29496 95.6708 4.02114 96.7188 4.02114C99.4847 4.02114 101.134 5.8008 101.134 8.82957C101.134 11.6702 99.6049 13.6209 97.0967 13.6209C94.8119 13.6209 93.4032 11.7044 93.4032 9.24024C93.4032 9.052 93.4032 8.84666 93.4204 8.62423L99.7423 7.71731C99.5876 5.7494 98.3508 5.13339 96.5813 5.13339V5.13352ZM110.393 13.4328V7.08421C110.393 5.15061 109.139 4.02114 106.7 4.02114C105.343 4.02114 104.192 4.29496 103.298 4.67145V13.4328H104.741V5.50989C105.188 5.33873 105.91 5.18479 106.717 5.18479C108.212 5.18479 108.967 5.97195 108.967 7.20397V13.4328H110.393H110.393ZM113.932 9.42861C113.949 11.2424 114.877 12.5259 116.269 12.5259C117.901 12.5259 118.949 10.7976 118.983 8.70993L113.932 9.42861ZM115.736 5.13352C115.015 5.13352 114.224 5.40734 113.795 5.68104L113.297 4.67145C113.915 4.29496 114.826 4.02114 115.874 4.02114C118.639 4.02114 120.289 5.8008 120.289 8.82957C120.289 11.6702 118.76 13.6209 116.251 13.6209C113.967 13.6209 112.558 11.7044 112.558 9.24024C112.558 9.052 112.558 8.84666 112.575 8.62423L118.897 7.71731C118.742 5.7494 117.506 5.13339 115.736 5.13339V5.13352ZM133.035 12.9879L132.537 11.9099C132.125 12.2008 131.507 12.4061 130.888 12.4061C129.583 12.4061 128.243 11.3794 128.243 8.79551C128.243 6.2116 129.565 5.2191 130.888 5.2191C131.507 5.2191 132.125 5.40735 132.537 5.69826L133.035 4.65449C132.486 4.278 131.661 4.02139 130.733 4.02139C128.758 4.02139 126.765 5.42456 126.765 8.81273C126.765 12.2009 128.758 13.6212 130.733 13.6212C131.661 13.6212 132.469 13.3816 133.035 12.9881V12.9879ZM136.042 9.42861C136.059 11.2424 136.987 12.5259 138.378 12.5259C140.01 12.5259 141.058 10.7976 141.092 8.70993L136.042 9.42861ZM137.846 5.13352C137.124 5.13352 136.334 5.40734 135.904 5.68104L135.406 4.67145C136.025 4.29496 136.935 4.02114 137.983 4.02114C140.749 4.02114 142.398 5.8008 142.398 8.82957C142.398 11.6702 140.869 13.6209 138.361 13.6209C136.076 13.6209 134.668 11.7044 134.668 9.24024C134.668 9.052 134.668 8.84666 134.685 8.62423L141.007 7.71731C140.852 5.7494 139.615 5.13339 137.846 5.13339V5.13352ZM148.857 4.08975C148.6 4.05557 148.291 4.02126 147.947 4.02126C146.676 4.02126 145.405 4.29509 144.563 4.67158V13.4329H146.006V5.51001C146.435 5.32177 147.122 5.2191 147.758 5.2191C148.05 5.2191 148.342 5.23619 148.583 5.28759L148.857 4.08975ZM154.922 4.08975C154.664 4.05557 154.355 4.02126 154.011 4.02126C152.74 4.02126 151.469 4.29509 150.627 4.67158V13.4329H152.07V5.51001C152.499 5.32177 153.187 5.2191 153.822 5.2191C154.114 5.2191 154.406 5.23619 154.647 5.28759L154.922 4.08975ZM163.065 12.9708V7.03294C163.065 4.84261 161.707 4.02126 159.629 4.02126C158.478 4.02126 157.31 4.34636 156.605 4.67158L156.983 5.68117C157.585 5.39025 158.65 5.11643 159.509 5.11643C160.797 5.11643 161.708 5.54419 161.708 6.91318V7.61477C158.907 7.76883 156.056 8.16229 156.056 10.7976C156.056 12.5431 157.327 13.621 159.869 13.621C161.089 13.621 162.412 13.3301 163.065 12.9707V12.9708ZM161.707 12.2522C161.381 12.4062 160.539 12.5431 159.835 12.5431C158.22 12.5431 157.413 11.8415 157.413 10.7634C157.413 8.84691 159.646 8.72715 161.707 8.60727V12.2522ZM172.668 13.4329V7.11865C172.668 5.13365 171.345 4.05557 169.215 4.05557C168.442 4.05557 167.617 4.29509 167.016 4.60309V0H165.573V13.4329H167.016V5.73257C167.531 5.42456 168.27 5.21922 168.94 5.21922C170.349 5.21922 171.242 5.86954 171.242 7.22131V13.4329H172.668H172.668ZM176.688 13.4329V4.20951H175.262V13.4329H176.688Z" transform="translate(150.312 43.3091)" fill="white"/>
</svg>
