<?xml version="1.0" encoding="UTF-8"?>
<!DOCTYPE svg PUBLIC "-//W3C//DTD SVG 1.1//EN" "http://www.w3.org/Graphics/SVG/1.1/DTD/svg11.dtd">
<!-- Creator: CorelDRAW 2018 (64-Bit) -->
<svg xmlns="http://www.w3.org/2000/svg" xml:space="preserve" width="14.7661in" height="3.07912in" version="1.1" style="shape-rendering:geometricPrecision; text-rendering:geometricPrecision; image-rendering:optimizeQuality; fill-rule:evenodd; clip-rule:evenodd"
viewBox="0 0 3620.03 754.87"
 xmlns:xlink="http://www.w3.org/1999/xlink">
 <defs>
  <style type="text/css">
   <![CDATA[
    .fil0 {fill:#CCCCCC}
    .fil11 {fill:#444444;fill-rule:nonzero}
    .fil1 {fill:url(#id0)}
    .fil4 {fill:url(#id1)}
    .fil8 {fill:url(#id2)}
    .fil10 {fill:url(#id3)}
    .fil6 {fill:url(#id4)}
    .fil5 {fill:url(#id5)}
    .fil7 {fill:url(#id6)}
    .fil2 {fill:url(#id7)}
    .fil9 {fill:url(#id8)}
    .fil3 {fill:url(#id9)}
   ]]>
  </style>
  <linearGradient id="id0" gradientUnits="userSpaceOnUse" x1="-0" y1="271.76" x2="156.4" y2="271.76">
   <stop offset="0" style="stop-opacity:1; stop-color:#00A3A3"/>
   <stop offset="1" style="stop-opacity:1; stop-color:#03EDED"/>
  </linearGradient>
  <linearGradient id="id1" gradientUnits="userSpaceOnUse" xlink:href="#id0" x1="258.82" y1="483.11" x2="415.21" y2="483.11">
  </linearGradient>
  <linearGradient id="id2" gradientUnits="userSpaceOnUse" xlink:href="#id0" x1="569.74" y1="658.35" x2="569.74" y2="96.52">
  </linearGradient>
  <linearGradient id="id3" gradientUnits="userSpaceOnUse" xlink:href="#id0" x1="1020.14" y1="308.83" x2="1145.18" y2="308.83">
  </linearGradient>
  <radialGradient id="id4" gradientUnits="userSpaceOnUse" gradientTransform="matrix(3.15438 -0 -0 1.39329 -1240 -30)" cx="575.8" cy="75.25" r="389.81" fx="575.8" fy="75.25">
   <stop offset="0" style="stop-opacity:1; stop-color:#00D4D4"/>
   <stop offset="1" style="stop-opacity:1; stop-color:#008787"/>
  </radialGradient>
  <radialGradient id="id5" gradientUnits="userSpaceOnUse" gradientTransform="matrix(3.55756E-14 -0.935441 3.24307 6.21278E-14 -1606 407)" xlink:href="#id4" cx="-70.59" cy="473.32" r="555.44" fx="-70.59" fy="473.32">
  </radialGradient>
  <radialGradient id="id6" gradientUnits="userSpaceOnUse" gradientTransform="matrix(3.15439 -0 -0 1.39392 -1222 -108)" xlink:href="#id4" cx="567.4" cy="275.33" r="304.91" fx="567.4" fy="275.33">
  </radialGradient>
  <radialGradient id="id7" gradientUnits="userSpaceOnUse" gradientTransform="matrix(1.58409 -0 -0 3.24307 -155 -109)" xlink:href="#id4" cx="264.71" cy="48.56" r="334.08" fx="264.71" fy="48.56">
  </radialGradient>
  <radialGradient id="id8" gradientUnits="userSpaceOnUse" gradientTransform="matrix(6.32308E-14 3.1544 1.11507 -3.89409E-14 815 -2987)" xlink:href="#id4" cx="999.19" cy="165.32" r="381.16" fx="999.19" fy="165.32">
  </radialGradient>
  <radialGradient id="id9" gradientUnits="userSpaceOnUse" gradientTransform="matrix(-1.5841 -1.93996E-16 3.97162E-16 -3.24307 -65 1393)" xlink:href="#id4" cx="-25.08" cy="328.24" r="334.08" fx="-25.08" fy="328.24">
  </radialGradient>
 </defs>
 <g id="Katman_x0020_1">
  <metadata id="CorelCorpID_0Corel-Layer"/>
  <polygon class="fil0" points="1394.05,0 1409.37,0 1409.37,754.87 1394.05,754.87 "/>
  <path class="fil1" d="M123.95 96.52l-33.53 0c-49.73,0 -90.42,45.97 -90.42,102.15l0 108.13c0,77.1 55.84,140.19 124.09,140.19l0 0 0 -139.11 32.31 0c-17.85,0 -32.45,-16.5 -32.45,-36.66l0 -174.69z"/>
  <path class="fil2" d="M413.88 96.52l-33.67 0c-49.73,0 -90.42,45.97 -90.42,102.15l0 76.84 0.95 0c67.72,0 124.46,26.64 124.46,103.15l-1.33 -282.14z"/>
  <path class="fil3" d="M1.33 658.35l33.67 0c49.73,0 90.42,-45.97 90.42,-102.15l0 -76.84 -0.95 0c-67.72,0 -124.46,-26.64 -124.46,-103.15l1.33 282.14z"/>
  <path class="fil4" d="M291.27 658.35l33.53 0c49.73,0 90.42,-45.97 90.42,-102.15l0 -108.13c0,-77.1 -55.84,-140.19 -124.09,-140.19l0 0 0 139.11 -32.31 0c17.85,0 32.45,16.5 32.45,36.66l0 174.69z"/>
  <path class="fil5" d="M-0 307.88l0 0 0 -8.05 0 -34.55 0 -54.71c0,53.38 38.66,97.05 85.91,97.05l38.04 0 0 0.26 168.14 0c67.62,0 122.96,62.41 123.13,138.76l0 0 0 0.35 0 0 0 40.62 0 1.63 0 45.6c0,1.4 -0.05,2.79 -0.14,4.17 -2.55,-50.84 -40.15,-91.54 -85.76,-91.54l-38.04 0 0 -0.48 -168.14 0c-67.72,0 -123.13,-62.6 -123.13,-139.11l0 -0z"/>
  <path class="fil6" d="M722.37 96.52l203.11 0 0 33.39c0,50.38 -41.24,91.55 -91.63,91.59l-199.77 0.15 0.48 -37.36c0.62,-48.27 39.52,-87.78 87.82,-87.78z"/>
  <path class="fil7" d="M627.08 296.61l298.4 0 0 33.43c0,50.44 -42.29,91.7 -93.99,91.7l-204.41 0 0 -125.13z"/>
  <path class="fil8" d="M510.51 658.35l0 0 -0.23 0 0 -116.24 0 -51.47 0.23 0 0 -227.5c0,-91.5 55.24,-166.38 122.83,-166.6l0 -0 0.31 0 0 0 35.95 0 1.45 0 40.36 0c1.24,0 2.47,0.07 3.69,0.19 -45,3.45 -81.02,54.33 -81.02,116.04l0 51.47 -0.43 0 0 227.5c0,91.64 -55.41,166.61 -123.13,166.61l0 0z"/>
  <path class="fil9" d="M1020.45 247.5l0 410.85 33.41 0c50.4,0 91.63,-46.58 91.63,-103.52l0 -307.33 -125.04 0z"/>
  <path class="fil10" d="M1145.18 188.09l0 -91.57 -33.41 0c-46.82,0 -85.73,40.21 -91.01,91.57l124.42 0z"/>
  <path class="fil11" d="M1702.72 118.22c24,0 39.03,24.62 39.03,54.03 0,27.54 -12.94,52.78 -34.43,52.78l-30.05 0 0 -106.81 25.46 0zm-32.77 -21.7c-10.85,0 -15.44,7.93 -15.44,16.48l0 117.24c0,8.55 4.59,16.48 15.44,16.48l37.36 0c36.73,0 57.18,-36.09 57.18,-74.48 0,-41.72 -22.54,-75.73 -61.78,-75.73l-32.77 0zm177.39 49.02c-5.22,-3.13 -10.85,-4.59 -16.91,-4.59 -10.23,0 -20.45,4.8 -27.34,13.98l-3.13 -12.52 -18.57 0 0 104.31 22.75 0 0 -61.12c0,-15.02 11.48,-22.95 22.54,-22.95 6.47,0 13.15,2.3 19.62,7.93l1.04 -25.03zm-2.3 86.57c0,8.14 6.47,14.6 14.61,14.6 8.14,0 14.82,-6.47 14.82,-14.6 0,-8.14 -6.68,-14.81 -14.82,-14.81 -8.14,0 -14.61,6.68 -14.61,14.81zm123.34 -71.76l-54.47 0 0 -42.14 68.45 0 0 -21.7 -75.76 0c-10.85,0 -15.44,7.93 -15.44,16.48l0 133.72 22.75 0 0 -64.67 54.47 0 0 -21.7zm48.63 23.99c-11.69,0 -21.71,7.09 -21.71,23.57 0,27.12 21.91,40.26 42.57,40.26 24.21,0 41.53,-14.81 41.53,-41.1l0 -27.95c0,-25.66 -21.08,-38.18 -42.78,-38.18 -14.82,0 -29.43,5.63 -38.61,16.27l11.27 17.11c7.3,-6.88 16.7,-11.68 26.51,-11.68 10.85,0 20.87,4.38 20.87,17.73l0 3.96 -39.65 0zm39.65 20.86c0,12.31 -7.1,21.28 -18.78,21.28 -10.85,0 -19.62,-8.76 -19.83,-21.28l38.61 0zm105.39 -59.66c-5.22,-3.13 -10.85,-4.59 -16.91,-4.59 -10.23,0 -20.45,4.8 -27.34,13.98l-3.13 -12.52 -18.57 0 0 104.31 22.75 0 0 -61.12c0,-15.02 11.48,-22.95 22.54,-22.95 6.47,0 13.15,2.3 19.62,7.93l1.04 -25.03zm93.5 101.18l0 -66.76c0,-11.68 8.35,-17.32 16.69,-17.32 8.14,0 16.07,5.63 16.07,17.32l0 66.76 22.75 0 0 -67.38c0,-23.36 -18.78,-38.38 -37.15,-38.38 -10.23,0 -20.45,4.59 -27.76,14.81 -5.84,-10.01 -15.24,-14.81 -24.42,-14.81 -9.18,0 -17.95,4.8 -22.75,13.98l-3.13 -12.52 -18.57 0 0 104.31 22.75 0 0 -65.71c0,-12.31 8.56,-18.36 16.9,-18.36 8.14,0 15.86,5.42 15.86,17.32l0 66.76 22.75 0zm141.08 0l19.62 0 0 -104.31 -19.83 0 -1.88 10.64c-5.84,-8.34 -15.65,-12.1 -26.3,-12.1 -18.37,0 -37.36,15.23 -37.36,37.76l0 31.29c0,23.99 18.99,38.18 37.36,38.18 9.81,0 18.57,-3.96 26.09,-12.93l2.3 11.47zm-3.13 -42.97c0,14.19 -11.06,22.74 -21.91,22.74 -8.97,0 -17.95,-5.42 -17.95,-18.78l0 -25.87c0,-13.35 9.18,-19.19 18.16,-19.19 10.64,0 21.71,8.55 21.71,22.95l0 18.15zm128.97 42.97l0 -68.84c0,-23.99 -16.7,-36.92 -36.1,-36.92 -10.02,0 -20.24,4.17 -27.55,13.98l-3.13 -12.52 -18.57 0 0 104.31 22.75 0 0 -61.12c0,-14.39 11.06,-22.95 21.7,-22.95 10.02,0 18.16,5.84 18.16,19.19l0 64.88 22.75 0zm172.59 -89.29l-66.37 0 0 -60.92 -22.75 0 0 150.2 22.75 0 0 -67.59 66.37 0 0 67.59 22.75 0 0 -150.2 -22.75 0 0 60.92zm65.32 26.91c-11.69,0 -21.71,7.09 -21.71,23.57 0,27.12 21.91,40.26 42.57,40.26 24.21,0 41.53,-14.81 41.53,-41.1l0 -27.95c0,-25.66 -21.08,-38.18 -42.78,-38.18 -14.82,0 -29.43,5.63 -38.61,16.27l11.27 17.11c7.3,-6.88 16.7,-11.68 26.51,-11.68 10.85,0 20.87,4.38 20.87,17.73l0 3.96 -39.65 0zm39.65 20.86c0,12.31 -7.1,21.28 -18.78,21.28 -10.85,0 -19.62,-8.76 -19.83,-21.28l38.61 0zm106.02 -58.41c-11.69,-3.55 -23.79,-5.84 -34.64,-5.84 -21.08,0 -37.57,7.93 -37.57,31.29 0,36.09 53.43,27.75 53.43,43.39 0,7.51 -8.14,10.85 -17.95,10.85 -11.69,0 -25.88,-3.13 -30.89,-4.8l-2.3 22.11c11.06,2.71 22.33,4.38 32.97,4.38 22.54,0 40.91,-8.14 40.91,-32.33 0,-36.93 -53.43,-29.62 -53.43,-43.6 0,-7.51 7.1,-9.6 16.07,-9.6 11.9,0 20.45,1.88 29.84,4.59l3.55 -20.44zm39.86 37.55c-11.69,0 -21.71,7.09 -21.71,23.57 0,27.12 21.91,40.26 42.57,40.26 24.21,0 41.53,-14.81 41.53,-41.1l0 -27.95c0,-25.66 -21.08,-38.18 -42.78,-38.18 -14.82,0 -29.43,5.63 -38.61,16.27l11.27 17.11c7.3,-6.88 16.7,-11.68 26.51,-11.68 10.85,0 20.87,4.38 20.87,17.73l0 3.96 -39.65 0zm39.65 20.86c0,12.31 -7.1,21.28 -18.78,21.28 -10.85,0 -19.62,-8.76 -19.83,-21.28l38.61 0zm124.8 41.51l0 -68.84c0,-23.99 -16.7,-36.92 -36.1,-36.92 -10.02,0 -20.24,4.17 -27.55,13.98l-3.13 -12.52 -18.57 0 0 104.31 22.75 0 0 -61.12c0,-14.39 11.06,-22.95 21.7,-22.95 10.02,0 18.16,5.84 18.16,19.19l0 64.88 22.75 0zm40.49 -65.3c0,-12.31 9.81,-18.78 20.03,-18.78 9.81,0 20.03,6.47 20.03,18.78l0 26.29c0,12.31 -10.23,18.78 -20.03,18.78 -10.23,0 -20.03,-6.47 -20.03,-18.78l0 -26.29zm-22.75 26.29c0,26.91 21.29,40.47 42.78,40.47 21.29,0 42.78,-13.56 42.78,-40.47l0 -26.29c0,-26.91 -21.5,-40.47 -42.78,-40.47 -21.5,0 -42.78,13.56 -42.78,40.47l0 26.29zm148.59 40.47c6.47,0 11.9,-3.34 15.03,-10.64l37.15 -95.13 -24 0 -28.17 81.15 -28.17 -81.15 -24 0 37.15 95.13c3.13,7.3 8.56,10.64 15.03,10.64zm-1555.59 94.38l0 -9.57 -77.34 0 0 9.57 33.43 0 0 99.79 10.64 0 0 -99.79 33.28 0zm8.36 -0.91c0,4.71 3.95,8.66 8.66,8.66 4.71,0 8.66,-3.95 8.66,-8.66 0,-4.71 -3.95,-8.66 -8.66,-8.66 -4.71,0 -8.66,3.95 -8.66,8.66zm13.83 100.7l0 -75.94 -10.64 0 0 75.94 10.64 0zm31.15 -48.3c0,-11.85 10.64,-19.14 20.21,-19.14 7.9,0 15.19,5.01 15.19,16.56l0 25.82c0,11.54 -7.14,16.56 -15.04,16.56 -9.72,0 -20.36,-7.6 -20.36,-19.59l0 -20.2zm0 37.67c5.32,8.05 12.92,11.7 20.66,11.7 12.76,0 25.38,-10.03 25.38,-26.12l0 -25.82c0,-15.95 -12.31,-26.12 -25.22,-26.12 -7.45,0 -15.8,3.19 -20.82,10.33l0 -50.27 -10.64 0 0 116.95 8.96 0 1.67 -10.63zm74.15 -37.67c0,-11.85 10.64,-19.14 20.21,-19.14 7.9,0 15.19,5.01 15.19,16.56l0 25.82c0,11.54 -7.14,16.56 -15.04,16.56 -9.72,0 -20.36,-7.6 -20.36,-19.59l0 -20.2zm0 37.67c5.32,8.05 12.92,11.7 20.67,11.7 12.76,0 25.37,-10.03 25.37,-26.12l0 -25.82c0,-15.95 -12.31,-26.12 -25.22,-26.12 -7.45,0 -15.8,3.19 -20.82,10.33l0 -50.27 -10.64 0 0 116.95 8.96 0 1.67 -10.63zm154.38 -9.87c-4.25,8.05 -12.16,12 -19.9,12 -9.73,0 -18.54,-6.23 -18.54,-18.38l0 -6.68 34.34 0c7.45,0 13.07,-5.77 13.07,-14.43 0,-19.44 -14.28,-29.01 -29.02,-29.01 -14.74,0 -29.02,9.11 -29.02,28.56l0 22.18c0,15.19 13.07,27.34 29.78,27.34 11.09,0 21.43,-6.08 26.74,-15.19l-7.45 -6.38zm-38.44 -27.95c0,-12.61 9.27,-18.99 18.39,-18.99 9.12,0 18.38,6.53 18.38,18.68 0,3.19 -1.21,5.62 -3.65,5.62l-33.13 0 0 -5.32zm73.85 48.45l0 -116.95 -10.64 0 0 116.95 10.64 0zm30.39 -75.94l-9.12 0 0 75.94 10.64 0 0 -48.3c0,-11.54 8.97,-19.14 17.47,-19.14 6.84,0 13.07,5.01 13.07,16.56l0 50.88 10.64 0 0 -48.91c0,-11.54 8.97,-18.53 17.02,-18.53 6.84,0 13.52,5.16 13.52,17.16l0 50.27 10.64 0 0 -50.43c0,-18.23 -11.4,-26.58 -23.1,-26.58 -8.51,0 -17.17,4.1 -22.49,12.45 -4.41,-8.51 -10.94,-12.45 -17.78,-12.45 -7.14,0 -14.89,4.1 -18.99,11.24l-1.52 -10.18zm115.78 75.94l0 -116.95 -10.64 0 0 116.95 10.64 0zm26.44 -55.44c4.25,-8.05 12.16,-12 19.91,-12 9.72,0 18.54,6.23 18.54,18.38l0 6.68 -34.34 0c-7.45,0 -13.07,5.77 -13.07,14.43 0,19.44 14.28,29.01 29.02,29.01 14.74,0 29.02,-9.11 29.02,-28.56l0 -22.18c0,-15.19 -13.07,-27.34 -29.78,-27.34 -11.09,0 -21.42,6.08 -26.74,15.19l7.45 6.38zm38.44 27.95c0,12.61 -9.27,18.99 -18.39,18.99 -9.12,0 -18.38,-6.53 -18.38,-18.68 0,-3.19 1.22,-5.62 3.65,-5.62l33.12 0 0 5.32zm66.4 -47.84c-3.49,-1.06 -6.23,-1.67 -9.72,-1.67 -7.9,0 -15.65,3.34 -21.12,10.48l-0.91 -9.42 -9.72 0 0 75.94 10.64 0 0 -46.33c0,-13.37 10.18,-21.11 20.97,-21.11 2.89,0 6.23,0.76 9.88,2.13l0 -10.02zm12.46 -25.37c0,4.71 3.95,8.66 8.66,8.66 4.71,0 8.66,-3.95 8.66,-8.66 0,-4.71 -3.95,-8.66 -8.66,-8.66 -4.71,0 -8.66,3.95 -8.66,8.66zm13.83 100.7l0 -75.94 -10.64 0 0 75.94 10.64 0zm66.1 -75.94l0 50.43c0,17.31 11.4,26.58 24.16,26.58 7.75,0 15.8,-3.49 21.88,-10.78l1.67 9.72 8.97 0 0 -75.94 -10.64 0 0 46.78c0,12.76 -10.79,20.66 -20.51,20.66 -7.9,0 -14.89,-5.16 -14.89,-17.01l0 -50.43 -10.64 0zm5.47 -24.76c0,4.71 3.95,8.66 8.66,8.66 4.71,0 8.66,-3.95 8.66,-8.66 0,-4.71 -3.95,-8.66 -8.66,-8.66 -4.71,0 -8.66,3.95 -8.66,8.66zm28.26 0c0,4.71 3.95,8.66 8.66,8.66 4.71,0 8.66,-3.95 8.66,-8.66 0,-4.71 -3.95,-8.66 -8.66,-8.66 -4.71,0 -8.66,3.95 -8.66,8.66zm89.95 43.74c2.28,-2.58 3.95,-5.92 3.95,-9.42 0,-5.01 -3.19,-9.57 -10.03,-9.57l-43.31 0 0 9.57 44.06 0 -44.06 48c-1.97,2.28 -3.04,4.86 -3.04,7.59 0,5.47 3.95,10.78 10.18,10.78l47.71 0 0 -9.57 -48.93 0 43.46 -47.39zm61.99 -18.38c-3.49,-1.06 -6.23,-1.67 -9.72,-1.67 -7.9,0 -15.65,3.34 -21.12,10.48l-0.91 -9.42 -9.72 0 0 75.94 10.64 0 0 -46.33c0,-13.37 10.18,-21.11 20.97,-21.11 2.89,0 6.23,0.76 9.88,2.13l0 -10.02zm20.06 19.9c4.25,-8.05 12.16,-12 19.91,-12 9.72,0 18.54,6.23 18.54,18.38l0 6.68 -34.34 0c-7.45,0 -13.07,5.77 -13.07,14.43 0,19.44 14.28,29.01 29.02,29.01 14.74,0 29.02,-9.11 29.02,-28.56l0 -22.18c0,-15.19 -13.07,-27.34 -29.78,-27.34 -11.09,0 -21.42,6.08 -26.74,15.19l7.45 6.38zm38.44 27.95c0,12.61 -9.27,18.99 -18.39,18.99 -9.12,0 -18.39,-6.53 -18.39,-18.68 0,-3.19 1.22,-5.62 3.65,-5.62l33.12 0 0 5.32zm87.98 27.49l0 -66.38 18.84 0 0 -9.57 -18.84 0 0 -15.19c0,-12.15 3.34,-17.32 9.27,-17.32 2.43,0 5.17,0.76 8.66,1.82l1.82 -9.11c-3.8,-1.37 -7.45,-2.28 -11.09,-2.28 -10.48,0 -19.3,6.99 -19.3,25.82l0 16.25 -13.22 0 0 9.57 13.22 0 0 66.38 10.64 0zm37.83 -55.44c4.25,-8.05 12.16,-12 19.91,-12 9.72,0 18.54,6.23 18.54,18.38l0 6.68 -34.34 0c-7.45,0 -13.07,5.77 -13.07,14.43 0,19.44 14.28,29.01 29.02,29.01 14.74,0 29.02,-9.11 29.02,-28.56l0 -22.18c0,-15.19 -13.07,-27.34 -29.78,-27.34 -11.09,0 -21.42,6.08 -26.74,15.19l7.45 6.38zm38.44 27.95c0,12.61 -9.27,18.99 -18.38,18.99 -9.12,0 -18.39,-6.53 -18.39,-18.68 0,-3.19 1.22,-5.62 3.65,-5.62l33.12 0 0 5.32zm37.08 27.49l0 -116.95 -10.64 0 0 116.95 10.64 0zm65.64 -73.36c-8.51,-2.28 -15.5,-3.65 -22.64,-3.65 -15.35,0 -26.9,7.75 -26.9,21.72 0,26.88 42.39,16.25 42.39,34.17 0,9.72 -8.81,12.61 -18.54,12.61 -7.45,0 -15.5,-1.67 -20.51,-2.89l-1.22 9.87c7.75,1.67 15.8,2.58 22.34,2.58 17.78,0 28.57,-7.6 28.57,-22.02 0,-28.25 -42.39,-16.86 -42.39,-34.33 0,-9.26 7.29,-12.15 16.26,-12.15 7.75,0 16.26,1.82 21.58,3.49l1.06 -9.42zm22.94 17.92c4.25,-8.05 12.16,-12 19.91,-12 9.72,0 18.54,6.23 18.54,18.38l0 6.68 -34.34 0c-7.45,0 -13.07,5.77 -13.07,14.43 0,19.44 14.28,29.01 29.02,29.01 14.74,0 29.02,-9.11 29.02,-28.56l0 -22.18c0,-15.19 -13.07,-27.34 -29.78,-27.34 -11.09,0 -21.42,6.08 -26.74,15.19l7.45 6.38zm38.44 27.95c0,12.61 -9.27,18.99 -18.38,18.99 -9.12,0 -18.39,-6.53 -18.39,-18.68 0,-3.19 1.22,-5.62 3.65,-5.62l33.12 0 0 5.32zm42.4 27.49l0 -66.38 18.84 0 0 -9.57 -18.84 0 0 -15.19c0,-12.15 3.34,-17.32 9.27,-17.32 2.43,0 5.17,0.76 8.66,1.82l1.82 -9.11c-3.8,-1.37 -7.45,-2.28 -11.09,-2.28 -10.48,0 -19.3,6.99 -19.3,25.82l0 16.25 -13.22 0 0 9.57 13.22 0 0 66.38 10.64 0zm37.83 -55.44c4.25,-8.05 12.16,-12 19.91,-12 9.72,0 18.54,6.23 18.54,18.38l0 6.68 -34.34 0c-7.45,0 -13.07,5.77 -13.07,14.43 0,19.44 14.28,29.01 29.02,29.01 14.74,0 29.02,-9.11 29.02,-28.56l0 -22.18c0,-15.19 -13.07,-27.34 -29.78,-27.34 -11.09,0 -21.42,6.08 -26.74,15.19l7.45 6.38zm38.44 27.95c0,12.61 -9.27,18.99 -18.38,18.99 -9.12,0 -18.39,-6.53 -18.39,-18.68 0,-3.19 1.22,-5.62 3.65,-5.62l33.12 0 0 5.32zm114.27 0c0,11.85 -10.48,18.99 -20.06,18.99 -7.9,0 -15.35,-5.01 -15.35,-16.56l0 -25.82c0,-11.54 7.29,-16.56 15.19,-16.56 9.57,0 20.21,7.29 20.21,19.14l0 20.81zm1.67 27.49l8.96 0 0 -116.95 -10.64 0 0 50.27c-5.02,-7.14 -13.37,-10.33 -20.82,-10.33 -12.92,0 -25.22,10.18 -25.22,26.12l0 25.82c0,16.1 11.55,26.12 24.46,26.12 7.45,0 15.35,-3.34 21.58,-10.78l1.67 9.72zm54.7 -8.51c-10.18,0 -18.39,-7.29 -18.39,-17.62l0 -23.69c0,-10.33 8.21,-17.62 18.39,-17.62 10.18,0 18.38,7.29 18.38,17.62l0 23.69c0,10.33 -8.2,17.62 -18.38,17.62zm0 9.57c15.95,0 29.02,-11.24 29.02,-27.19l0 -23.69c0,-15.95 -13.07,-27.19 -29.02,-27.19 -15.95,0 -29.02,11.24 -29.02,27.19l0 23.69c0,15.95 13.07,27.19 29.02,27.19zm87.67 -75.94c0.46,2.28 0.76,4.1 0.76,6.38 0,15.95 -14.43,27.04 -32.06,27.49l0 -75.94 -10.64 0 0 116.95 10.64 0 0 -31.74c7.45,-0.3 13.98,-1.67 19.75,-4.1 7.14,1.37 11.85,6.53 11.85,13.67l0 22.18 10.64 0 0 -23.69c0,-10.18 -7.14,-15.19 -13.22,-17.62 8.51,-6.53 13.22,-15.95 13.22,-28.1 0,-1.97 -0.15,-4.25 -0.46,-6.53l-10.48 1.06zm62.75 64.86c-2.43,1.06 -5.17,1.52 -7.6,1.52 -4.86,0 -8.81,-2.58 -8.81,-11.24l0 -46.63 18.08 0 0 -9.57 -18.08 0 0 -22.78 -10.64 3.04 0 19.74 -15.19 0 0 9.57 15.19 0 0 46.63c0,15.49 7.14,20.81 18.08,20.81 1.67,0 5.32,-0.61 8.96,-1.67l0 -9.42zm40.72 1.52c-10.18,0 -18.39,-7.29 -18.39,-17.62l0 -23.69c0,-10.33 8.21,-17.62 18.39,-17.62 10.18,0 18.38,7.29 18.38,17.62l0 23.69c0,10.33 -8.2,17.62 -18.38,17.62zm0 9.57c15.95,0 29.02,-11.24 29.02,-27.19l0 -23.69c0,-15.95 -13.07,-27.19 -29.02,-27.19 -15.95,0 -29.02,11.24 -29.02,27.19l0 23.69c0,15.95 13.07,27.19 29.02,27.19zm87.22 -76.4c-3.49,-1.06 -6.23,-1.67 -9.72,-1.67 -7.9,0 -15.65,3.34 -21.12,10.48l-0.91 -9.42 -9.72 0 0 75.94 10.64 0 0 -46.33c0,-13.37 10.18,-21.11 20.97,-21.11 2.89,0 6.23,0.76 9.88,2.13l0 -10.02zm14.89 -0.61l0 50.43c0,17.31 11.4,26.58 24.16,26.58 7.75,0 15.8,-3.49 21.88,-10.78l1.67 9.72 8.96 0 0 -75.94 -10.64 0 0 46.78c0,12.76 -10.79,20.66 -20.51,20.66 -7.9,0 -14.89,-5.16 -14.89,-17.01l0 -50.43 -10.64 0zm-1833.71 183.94c0,-21.11 -16.87,-36.91 -37.99,-36.91 -21.12,0 -37.99,15.8 -37.99,36.91l0 73.51 10.64 0 0 -41.77 54.7 0 0 41.77 10.64 0 0 -73.51zm-10.64 22.18l-54.7 0 0 -22.18c0,-15.19 12.16,-27.34 27.35,-27.34 15.2,0 27.35,12.15 27.35,27.34l0 22.18zm74.91 22.02c0,12.91 -11.09,20.81 -20.82,20.81 -7.75,0 -14.59,-4.86 -14.59,-15.95l0 -27.04c0,-11.09 7.29,-15.95 15.19,-15.95 9.57,0 20.21,7.29 20.21,19.14l0 18.99zm0 36c0,13.37 -8.36,18.23 -18.23,18.23 -6.69,0 -14.13,-2.73 -20.06,-8.05l-4.1 8.81c6.84,6.07 14.89,8.81 24.46,8.81 16.56,0 28.57,-12.15 28.57,-27.34l0 -83.08 -9.57 0 -1.06 9.27c-5.32,-7.14 -12.76,-10.33 -20.51,-10.33 -12.76,0 -25.53,10.18 -25.53,25.67l0 27.04c0,15.64 12.61,25.37 25.22,25.37 8.05,0 15.8,-4.56 20.82,-12.91l0 18.53zm-6.53 -117.26c0,7.75 -4.86,11.39 -9.88,11.39 -5.01,0 -10.33,-3.65 -10.33,-11.39l-10.64 0c0,14.13 10.64,20.96 20.97,20.96 10.33,0 20.51,-6.84 20.51,-20.96l-10.64 0zm48.32 110.57l0 -75.94 -10.64 0 0 75.94 10.64 0zm67.77 -56.96c2.28,-2.58 3.95,-5.92 3.95,-9.42 0,-5.01 -3.19,-9.57 -10.03,-9.57l-43.3 0 0 9.57 44.06 0 -44.06 48c-1.98,2.28 -3.04,4.86 -3.04,7.59 0,5.47 3.95,10.78 10.18,10.78l47.71 0 0 -9.57 -48.93 0 43.46 -47.39zm115.18 -18.99l-23.55 66.38 -23.55 -66.38 -11.85 0 26.74 71.08c1.67,4.1 4.86,5.92 8.66,5.92 3.8,0 6.99,-1.82 8.66,-5.92l26.74 -71.08 -11.85 0zm26.89 20.51c4.25,-8.05 12.16,-12 19.91,-12 9.72,0 18.54,6.23 18.54,18.38l0 6.68 -34.34 0c-7.45,0 -13.07,5.77 -13.07,14.43 0,19.44 14.28,29.01 29.02,29.01 14.74,0 29.02,-9.11 29.02,-28.56l0 -22.18c0,-15.19 -13.07,-27.34 -29.78,-27.34 -11.09,0 -21.42,6.08 -26.74,15.19l7.45 6.38zm38.44 27.95c0,12.61 -9.27,18.99 -18.39,18.99 -9.12,0 -18.39,-6.53 -18.39,-18.68 0,-3.19 1.22,-5.62 3.65,-5.62l33.12 0 0 5.32zm70.51 -48.45l0 50.43c0,17.31 11.4,26.58 24.16,26.58 7.75,0 15.8,-3.49 21.88,-10.78l1.67 9.72 8.97 0 0 -75.94 -10.64 0 0 46.78c0,12.76 -10.79,20.66 -20.51,20.66 -7.9,0 -14.89,-5.16 -14.89,-17.01l0 -50.43 -10.64 0zm5.47 -24.76c0,4.71 3.95,8.66 8.66,8.66 4.71,0 8.66,-3.95 8.66,-8.66 0,-4.71 -3.95,-8.66 -8.66,-8.66 -4.71,0 -8.66,3.95 -8.66,8.66zm28.26 0c0,4.71 3.95,8.66 8.66,8.66 4.71,0 8.66,-3.95 8.66,-8.66 0,-4.71 -3.95,-8.66 -8.66,-8.66 -4.71,0 -8.66,3.95 -8.66,8.66zm89.95 43.74c2.28,-2.58 3.95,-5.92 3.95,-9.42 0,-5.01 -3.19,-9.57 -10.03,-9.57l-43.31 0 0 9.57 44.06 0 -44.06 48c-1.97,2.28 -3.04,4.86 -3.04,7.59 0,5.47 3.95,10.78 10.18,10.78l47.71 0 0 -9.57 -48.93 0 43.46 -47.39zm71.42 19.59l0 -9.57 -54.24 0 0 9.57 54.24 0zm13.98 11.09c0,15.64 10.94,25.21 23.7,26.88l0 14.89c8.66,0 14.13,0.76 14.13,4.25 0,3.8 -4.56,4.86 -9.27,4.86 -4.71,0 -8.21,-0.76 -11.85,-2.13l-1.37 9.87c4.1,1.37 8.21,2.13 12.92,2.13 13.37,0 20.21,-6.08 20.21,-14.58 0,-6.08 -4.56,-12 -14.89,-13.06l0 -6.07c9.72,-1.37 19.3,-6.99 24.31,-17.32l-7.9 -5.32c-4.1,8.66 -12.46,13.37 -20.97,13.37 -9.57,0 -18.38,-5.62 -18.38,-18.38l0 -21.87c0,-12.61 8.81,-18.68 18.38,-18.68 7.45,0 14.89,3.8 19.3,11.54l8.51 -5.77c-6.84,-10.33 -17.47,-15.34 -27.96,-15.34 -14.13,0 -28.87,9.42 -28.87,28.56l0 22.18zm74.3 -29.16c4.25,-8.05 12.16,-12 19.91,-12 9.72,0 18.54,6.23 18.54,18.38l0 6.68 -34.34 0c-7.45,0 -13.07,5.77 -13.07,14.43 0,19.44 14.28,29.01 29.02,29.01 14.74,0 29.02,-9.11 29.02,-28.56l0 -22.18c0,-15.19 -13.07,-27.34 -29.78,-27.34 -11.09,0 -21.42,6.08 -26.74,15.19l7.45 6.38zm38.44 27.95c0,12.61 -9.27,18.99 -18.39,18.99 -9.12,0 -18.38,-6.53 -18.38,-18.68 0,-3.19 1.22,-5.62 3.65,-5.62l33.12 0 0 5.32zm35.56 27.49l0 -44.65c0,-13.37 11.55,-22.78 21.73,-22.78 7.29,0 13.68,5.01 13.68,17.01l0 50.43 10.64 0 0 -50.43c0,-17.62 -11.09,-26.58 -23.4,-26.58 -8.36,0 -16.71,3.8 -22.64,12.15l-0.91 -11.09 -9.72 0 0 75.94 10.64 0zm70.96 -55.44c4.25,-8.05 12.16,-12 19.91,-12 9.72,0 18.54,6.23 18.54,18.38l0 6.68 -34.34 0c-7.45,0 -13.07,5.77 -13.07,14.43 0,19.44 14.28,29.01 29.02,29.01 14.74,0 29.02,-9.11 29.02,-28.56l0 -22.18c0,-15.19 -13.07,-27.34 -29.78,-27.34 -11.09,0 -21.42,6.08 -26.74,15.19l7.45 6.38zm38.44 27.95c0,12.61 -9.27,18.99 -18.39,18.99 -9.12,0 -18.39,-6.53 -18.39,-18.68 0,-3.19 1.22,-5.62 3.65,-5.62l33.12 0 0 5.32zm68.23 1.22c0,17.92 14.13,27.34 28.87,27.34 11.55,0 23.1,-5.47 29.02,-17.62l-7.9 -5.32c-4.1,8.66 -12.46,13.37 -20.97,13.37 -9.57,0 -18.39,-5.62 -18.39,-18.38l0 -21.87c0,-12.61 8.81,-18.68 18.39,-18.68 7.45,0 14.89,3.8 19.3,11.54l8.51 -5.77c-6.84,-10.33 -17.47,-15.34 -27.96,-15.34 -14.13,0 -28.87,9.42 -28.87,28.56l0 22.18zm74.3 -29.16c4.25,-8.05 12.16,-12 19.91,-12 9.72,0 18.54,6.23 18.54,18.38l0 6.68 -34.34 0c-7.45,0 -13.07,5.77 -13.07,14.43 0,19.44 14.28,29.01 29.02,29.01 14.74,0 29.02,-9.11 29.02,-28.56l0 -22.18c0,-15.19 -13.07,-27.34 -29.78,-27.34 -11.09,0 -21.42,6.08 -26.74,15.19l7.45 6.38zm38.44 27.95c0,12.61 -9.27,18.99 -18.38,18.99 -9.12,0 -18.39,-6.53 -18.39,-18.68 0,-3.19 1.22,-5.62 3.65,-5.62l33.12 0 0 5.32zm66.4 -47.84c-3.49,-1.06 -6.23,-1.67 -9.72,-1.67 -7.9,0 -15.65,3.34 -21.12,10.48l-0.91 -9.42 -9.72 0 0 75.94 10.64 0 0 -46.33c0,-13.37 10.18,-21.11 20.97,-21.11 2.89,0 6.23,0.76 9.88,2.13l0 -10.02zm56.37 0c-3.49,-1.06 -6.23,-1.67 -9.72,-1.67 -7.9,0 -15.65,3.34 -21.12,10.48l-0.91 -9.42 -9.72 0 0 75.94 10.64 0 0 -46.33c0,-13.37 10.18,-21.11 20.97,-21.11 2.89,0 6.23,0.76 9.88,2.13l0 -10.02zm59.56 75.34l9.72 0 0 -75.94 -9.57 0 -1.06 9.27c-5.32,-7.14 -12.76,-10.33 -20.51,-10.33 -12.76,0 -25.53,10.18 -25.53,25.67l0 27.04c0,15.64 12.31,25.37 25.07,25.37 7.75,0 15.65,-3.65 20.97,-11.7l0.91 10.63zm-0.91 -28.1c0,12.15 -10.79,19.59 -20.51,19.59 -7.9,0 -14.89,-4.86 -14.89,-15.8l0 -27.04c0,-10.94 7.29,-16.1 15.19,-16.1 9.57,0 20.21,7.14 20.21,19.14l0 20.2zm41.03 28.1l0 -46.48c0,-12.61 11.4,-20.96 21.27,-20.96 7.45,0 14.13,4.86 14.13,16.56l0 50.88 10.64 0 0 -51.49c0,-16.56 -11.09,-25.52 -23.25,-25.52 -8.05,0 -16.71,3.8 -22.79,12.15l0 -52.1 -10.64 0 0 116.95 10.64 0zm77.19 0l0 -75.94 -10.64 0 0 75.94 10.64 0z"/>
 </g>
</svg>
