<svg width="359" height="76" viewBox="0 0 359 76" fill="none" xmlns="http://www.w3.org/2000/svg">
<path fill-rule="evenodd" clip-rule="evenodd" d="M17.9659 0.000138413C20.7311 6.36949 23.316 9.24392 19.5239 18.1609C15.525 27.5647 11.4872 29.1358 14.1361 31.6598C16.7873 34.1832 22.0012 35.2181 22.0012 35.2181C22.0012 35.2181 21.8936 36.8731 20.7676 38.4469C19.6444 40.0181 19.8289 42.3246 22.0673 43.6832C23.6879 44.6663 24.0101 44.8429 24.0662 44.863C24.0389 44.8875 23.1942 45.6645 22.6902 47.3519C22.1332 49.2215 23.3425 51.0292 25.3758 51.6185C27.411 52.2077 28.2558 52.4252 28.6914 53.0245C29.2216 53.7535 28.8162 53.8978 28.6641 56.8825C28.512 59.8682 27.9243 62.7497 31.8635 65.0038C35.8037 67.2588 42.6763 65.2752 48.3495 61.7779C53.2153 58.7772 65.3203 54.8672 74.6064 59.9219C68.067 68.316 58.3365 74.2232 46.9478 75.6649C24.0984 78.5595 3.22806 62.3815 0.334816 39.5319C-1.68643 23.5701 5.60019 8.57621 17.9656 0L17.9659 0.000138413Z" fill="#00D2D3"/>
<path d="M18.8858 14.0606C18.8858 4.67421 13.91 0 7.08689 0C4.25966 0 1.65874 0.603066 0 1.43244V26.6887C1.47009 27.4803 4.18423 28.1211 7.08689 28.1211C13.9098 28.1211 18.8858 23.4468 18.8858 14.0606ZM15.6062 14.0606C15.6062 21.939 11.8743 25.3317 7.23776 25.3317C5.54151 25.3317 3.99585 25.0679 3.2797 24.6908V3.43029C4.14672 3.01561 5.69224 2.78944 7.23776 2.78944C11.8743 2.78944 15.6062 6.18208 15.6062 14.0606ZM33.1725 7.12454C32.6071 7.0491 31.9286 6.9738 31.1746 6.9738C28.3852 6.9738 25.5956 7.57687 23.7485 8.40624V27.7066H26.915V10.2534C27.8574 9.83868 29.3652 9.61251 30.76 9.61251C31.4008 9.61251 32.0417 9.65016 32.5693 9.76324L33.1724 7.12454H33.1725ZM38.1107 25.784C38.1107 24.5777 37.1306 23.5976 35.9243 23.5976C34.718 23.5976 33.7379 24.5777 33.7379 25.784C33.7379 26.9903 34.718 27.9704 35.9243 27.9704C37.1306 27.9704 38.1107 26.9903 38.1107 25.784ZM57.5241 3.20412V0.414686H43.652V27.7066H46.8561V15.0408H56.657V12.3267H46.8561V3.20426H57.5241V3.20412ZM64.1585 18.8856C64.1961 22.8813 66.2318 25.7086 69.2852 25.7086C72.8663 25.7086 75.1658 21.9012 75.2411 17.3023L64.1585 18.8855V18.8856ZM68.1165 9.42399C66.5334 9.42399 64.7993 10.0271 63.8569 10.6303L62.7637 8.40624C64.1207 7.57687 66.1187 6.9738 68.4181 6.9738C74.4871 6.9738 78.1059 10.8942 78.1059 17.5664C78.1059 23.8239 74.7509 28.1212 69.2474 28.1212C64.2338 28.1212 61.1427 23.8994 61.1427 18.4711C61.1427 18.0564 61.1427 17.6041 61.1804 17.1141L75.0524 15.1162C74.7132 10.7811 71.999 9.42413 68.1164 9.42413L68.1165 9.42399ZM92.2796 7.12454C91.7142 7.0491 91.0357 6.9738 90.2817 6.9738C87.4923 6.9738 84.7027 7.57687 82.8556 8.40624V27.7066H86.0221V10.2534C86.9645 9.83868 88.4722 9.61251 89.867 9.61251C90.5079 9.61251 91.1487 9.65016 91.6764 9.76324L92.2794 7.12454H92.2796ZM123.19 27.7066V13.4575C123.19 9.49943 120.438 6.9738 116.254 6.9738C113.276 6.9738 110.864 8.14243 109.62 9.31091C108.527 8.0292 106.34 6.9738 103.174 6.9738C100.535 6.9738 98.1226 7.57687 96.1623 8.40624V27.7066H99.3288V10.2534C100.347 9.83868 101.741 9.53708 103.362 9.53708C106.19 9.53708 108.112 10.9319 108.112 13.2313V27.7066H111.241V11.2711C112.221 10.2156 113.766 9.53708 115.651 9.53708C118.214 9.53708 120.062 11.0826 120.062 13.7213V27.7064H123.19L123.19 27.7066ZM143.094 26.6888V13.6084C143.094 8.78328 140.116 6.97394 135.554 6.97394C133.029 6.97394 130.466 7.69023 128.92 8.40638L129.749 10.6304C131.069 9.98955 133.406 9.38648 135.291 9.38648C138.118 9.38648 140.116 10.3289 140.116 13.3445V14.8901C133.971 15.2293 127.714 16.0963 127.714 21.9015C127.714 25.7465 130.503 28.1214 136.082 28.1214C138.759 28.1214 141.661 27.4805 143.094 26.6889V26.6888ZM140.116 25.1056C139.399 25.4449 137.552 25.7465 136.007 25.7465C132.464 25.7465 130.692 24.201 130.692 21.8261C130.692 17.6042 135.592 17.3403 140.116 17.0764V25.1056H140.116ZM164.166 27.7067V13.7216C164.166 9.46192 161.414 6.97408 156.061 6.97408C153.083 6.97408 150.557 7.57715 148.597 8.40652V27.7068H151.764V10.2536C152.744 9.87674 154.327 9.53735 156.099 9.53735C159.378 9.53735 161.037 11.2714 161.037 13.9855V27.7068H164.166L164.166 27.7067ZM198.243 27.7067V0.414824H194.963V12.3268H183.391V0.414824H180.111V27.7067H183.391V15.0409H194.963V27.7067H198.243ZM206.234 18.8859C206.272 22.8816 208.308 25.7088 211.361 25.7088C214.942 25.7088 217.242 21.9015 217.317 17.3026L206.234 18.8858V18.8859ZM210.192 9.42427C208.609 9.42427 206.875 10.0273 205.933 10.6305L204.84 8.40652C206.197 7.57715 208.195 6.97408 210.494 6.97408C216.563 6.97408 220.182 10.8945 220.182 17.5667C220.182 23.8242 216.827 28.1215 211.323 28.1215C206.31 28.1215 203.219 23.8996 203.219 18.4714C203.219 18.0567 203.219 17.6043 203.256 17.1144L217.128 15.1165C216.789 10.7814 214.075 9.42441 210.192 9.42441L210.192 9.42427ZM237.371 22.2786C237.371 18.4712 234.431 17.3027 231.415 16.1718C229.153 15.3424 227.495 14.5886 227.495 12.4399C227.495 10.7436 228.89 9.42427 231.34 9.42427C232.923 9.42427 234.657 10.0273 235.6 10.6305L236.693 8.40652C235.336 7.57715 233.338 6.97408 231.038 6.97408C226.741 6.97408 224.291 9.27354 224.291 12.44C224.291 16.0965 227.118 17.3782 229.983 18.4337C232.358 19.3007 234.092 20.13 234.092 22.2787C234.092 24.2765 232.358 25.5583 229.757 25.5583C228.136 25.5583 225.987 24.9174 224.894 24.2765L223.763 26.6891C225.233 27.4807 227.608 28.1215 229.794 28.1215C234.582 28.1215 237.371 25.7844 237.371 22.2787V22.2786ZM244.27 18.8859C244.307 22.8816 246.343 25.7088 249.396 25.7088C252.977 25.7088 255.277 21.9015 255.352 17.3026L244.27 18.8858V18.8859ZM248.228 9.42427C246.644 9.42427 244.91 10.0273 243.968 10.6305L242.875 8.40652C244.232 7.57715 246.23 6.97408 248.529 6.97408C254.598 6.97408 258.217 10.8945 258.217 17.5667C258.217 23.8242 254.862 28.1215 249.358 28.1215C244.345 28.1215 241.254 23.8996 241.254 18.4714C241.254 18.0567 241.254 17.6043 241.292 17.1144L255.164 15.1165C254.824 10.7814 252.11 9.42441 248.228 9.42441L248.228 9.42427ZM278.535 27.7068V13.7217C278.535 9.46206 275.783 6.97422 270.43 6.97422C267.453 6.97422 264.927 7.57729 262.967 8.40666V27.707H266.133V10.2538C267.113 9.87688 268.696 9.53749 270.468 9.53749C273.748 9.53749 275.406 11.2715 275.406 13.9857V27.707H278.535L278.535 27.7068ZM300.55 17.5289C300.55 11.4976 297.534 6.97408 291.917 6.97408C286.301 6.97408 283.285 11.4976 283.285 17.5289C283.285 23.5603 286.3 28.1215 291.917 28.1215C297.534 28.1215 300.55 23.5603 300.55 17.5289ZM297.421 17.4913C297.421 22.1656 295.611 25.5205 291.917 25.5205C288.223 25.5205 286.414 22.1655 286.414 17.4913C286.414 12.8169 288.223 9.53749 291.917 9.53749C295.611 9.53749 297.421 12.817 297.421 17.4913ZM321.659 7.38877H318.191L313.328 21.8264C312.838 23.2211 312.461 24.8797 312.461 24.8797H312.386C312.386 24.8797 312.009 23.2211 311.519 21.8264L306.618 7.38877H303.188L310.614 27.7068H314.233L321.659 7.38877Z" transform="translate(37.1048 9.26067)" fill="#4F4F4F"/>
<path d="M11.6102 14.7957L6.74749 1.1498H4.88155L0 14.7957H1.71521L3.09118 10.8188H8.51932L9.91411 14.7957H11.6104H11.6102ZM8.14215 9.57473H3.4678L5.37139 4.05232C5.61638 3.31721 5.78607 2.48797 5.78607 2.48797H5.82373C5.82373 2.48797 5.99342 3.31735 6.23841 4.05232L8.142 9.57473H8.14215ZM21.0719 14.8333V5.14551C20.2991 4.73082 19.1117 4.42922 17.8677 4.42922C15.0593 4.42922 12.9862 6.01239 12.9862 9.57473C12.9862 12.6658 14.7955 14.4186 17.3401 14.4186C18.1317 14.4186 18.9799 14.2301 19.5265 13.9663V14.8333C19.5265 16.6616 18.603 17.6982 16.7747 17.6982C15.7192 17.6982 14.626 17.3778 13.9852 17.0385L13.4953 18.2824C14.268 18.6783 15.5497 19.0364 16.8879 19.0364C19.5266 19.0364 21.0721 17.5097 21.0721 14.8333H21.0719ZM19.5263 12.7788C19.074 13.0238 18.2635 13.1747 17.585 13.1747C15.8133 13.1747 14.5504 11.9496 14.5504 9.51825C14.5504 6.76646 15.9828 5.6921 17.7733 5.6921C18.4896 5.6921 19.1681 5.84283 19.5262 6.01253V12.779L19.5263 12.7788ZM19.9975 0.979965L19.0174 0.810271C18.8477 1.88463 18.3954 2.45005 17.4531 2.45005C16.5106 2.45005 16.0394 1.88463 15.8699 0.810271L14.8898 0.979965C14.984 2.52549 15.9075 3.50559 17.4531 3.50559C18.9986 3.50559 19.9032 2.52549 19.9975 0.979965ZM25.4823 14.7955V4.63643H23.9179V14.7955H25.4823ZM34.8496 14.7955V13.5138H29.8172L34.6988 4.63643H27.838V5.91813H32.437L27.5364 14.7955H34.8495H34.8496ZM50.5688 4.63643H48.8348L46.4034 11.8552C46.1584 12.5525 45.9699 13.3819 45.9699 13.3819H45.9322C45.9322 13.3819 45.7437 12.5525 45.4987 11.8552L43.0485 4.63643H41.3333L45.0464 14.7955H46.8557L50.5688 4.63643ZM53.641 10.385C53.6598 12.3829 54.6776 13.7965 56.2043 13.7965C57.9948 13.7965 59.1446 11.8929 59.1822 9.59341L53.641 10.385ZM55.62 5.65417C54.8285 5.65417 53.9614 5.95578 53.4903 6.25724L52.9437 5.14523C53.6222 4.73055 54.6211 4.42894 55.7709 4.42894C58.8055 4.42894 60.6148 6.38915 60.6148 9.72518C60.6148 12.854 58.9374 15.0026 56.1856 15.0026C53.6788 15.0026 52.1333 12.8917 52.1333 10.1775C52.1333 9.97017 52.1333 9.744 52.1521 9.49901L59.0881 8.50009C58.9184 6.33254 57.5614 5.65404 55.62 5.65404V5.65417ZM75.7308 14.2866V4.63643H74.1664V13.3441C73.7706 13.5138 72.9413 13.6834 72.0177 13.6834C70.4534 13.6834 69.6806 12.9671 69.6806 11.4594V4.63643H68.0974V11.4405C68.0974 13.8907 69.4922 15.0027 72.0178 15.0027C73.5069 15.0027 74.9582 14.6823 75.7309 14.2864L75.7308 14.2866ZM71.0754 2.18624C71.0754 1.71508 70.6607 1.31922 70.1707 1.31922C69.6807 1.31922 69.2661 1.71508 69.2661 2.18624C69.2661 2.6574 69.6807 3.05326 70.1707 3.05326C70.6607 3.05326 71.0754 2.6574 71.0754 2.18624ZM74.5623 2.18624C74.5623 1.71508 74.1476 1.31922 73.6576 1.31922C73.1676 1.31922 72.753 1.71508 72.753 2.18624C72.753 2.6574 73.1676 3.05326 73.6576 3.05326C74.1476 3.05326 74.5623 2.6574 74.5623 2.18624ZM85.0229 14.7955V13.5138H79.9904L84.872 4.63643H78.0113V5.91813H82.6102L77.7097 14.7955H85.0227H85.0229ZM91.4877 9.36738V7.97259H86.3799V9.36738H91.4877ZM100.686 14.3055L100.139 13.1181C99.6866 13.4385 99.0081 13.6647 98.3296 13.6647C96.8972 13.6647 95.4271 12.5339 95.4271 9.68781C95.4271 6.84176 96.8783 5.74857 98.3296 5.74857C99.0081 5.74857 99.6866 5.95592 100.139 6.27634L100.686 5.12668C100.082 4.712 99.1777 4.42936 98.1599 4.42936C95.9924 4.42936 93.806 5.97488 93.806 9.70677C93.806 13.4387 95.9924 15.003 98.1599 15.003C99.1777 15.003 100.064 14.7392 100.686 14.3057V14.3055ZM99.4038 17.1516C99.4038 16.4165 98.8761 15.8511 97.3117 15.8511C97.0289 15.8511 96.7086 15.8699 96.3504 15.9077L95.9736 16.6428C96.3505 16.6051 96.6898 16.5862 96.9913 16.5862C97.7641 16.5862 98.1599 16.7369 98.1599 17.1516C98.1599 17.6416 97.406 17.8679 96.3316 17.8679C96.0112 17.8679 95.6908 17.8491 95.3515 17.8113L94.9368 18.584C95.4458 18.6406 95.9358 18.6595 96.3693 18.6595C98.2918 18.6595 99.4038 18.1505 99.4038 17.1516ZM103.984 10.3851C104.003 12.383 105.021 13.7966 106.547 13.7966C108.338 13.7966 109.487 11.893 109.525 9.59355L103.984 10.3851ZM105.963 5.65431C105.171 5.65431 104.304 5.95592 103.833 6.25738L103.287 5.14537C103.965 4.73068 104.964 4.42908 106.114 4.42908C109.148 4.42908 110.958 6.38929 110.958 9.72532C110.958 12.8541 109.28 15.0027 106.528 15.0027C104.022 15.0027 102.476 12.8918 102.476 10.1777C102.476 9.97031 102.476 9.74415 102.495 9.49915L109.431 8.50023C109.261 6.33268 107.904 5.65417 105.963 5.65417V5.65431ZM121.117 14.7955V7.8029C121.117 5.67314 119.741 4.42908 117.064 4.42908C115.575 4.42908 114.313 4.73068 113.332 5.14537V14.7955H114.916V6.06886C115.406 5.88034 116.197 5.71079 117.083 5.71079C118.723 5.71079 119.552 6.5778 119.552 7.93481V14.7955H121.117H121.117ZM124.999 10.3851C125.018 12.383 126.036 13.7966 127.563 13.7966C129.353 13.7966 130.503 11.893 130.541 9.59355L124.999 10.3851ZM126.978 5.65431C126.187 5.65431 125.32 5.95592 124.849 6.25738L124.302 5.14537C124.98 4.73068 125.979 4.42908 127.129 4.42908C130.164 4.42908 131.973 6.38929 131.973 9.72532C131.973 12.8541 130.296 15.0027 127.544 15.0027C125.037 15.0027 123.492 12.8918 123.492 10.1777C123.492 9.97031 123.492 9.74415 123.51 9.49915L130.446 8.50023C130.277 6.33268 128.92 5.65417 126.978 5.65417V5.65431ZM145.958 14.3055L145.412 13.1181C144.959 13.4385 144.281 13.6647 143.602 13.6647C142.17 13.6647 140.7 12.5339 140.7 9.68781C140.7 6.84176 142.151 5.74857 143.602 5.74857C144.281 5.74857 144.959 5.95592 145.412 6.27634L145.958 5.12668C145.355 4.712 144.45 4.42936 143.433 4.42936C141.265 4.42936 139.079 5.97488 139.079 9.70677C139.079 13.4387 141.265 15.003 143.433 15.003C144.45 15.003 145.336 14.7392 145.958 14.3057V14.3055ZM149.257 10.3851C149.275 12.383 150.293 13.7966 151.82 13.7966C153.61 13.7966 154.76 11.893 154.798 9.59355L149.257 10.3851ZM151.236 5.65431C150.444 5.65431 149.577 5.95592 149.106 6.25738L148.559 5.14537C149.238 4.73068 150.237 4.42908 151.387 4.42908C154.421 4.42908 156.23 6.38929 156.23 9.72532C156.23 12.8541 154.553 15.0027 151.801 15.0027C149.294 15.0027 147.749 12.8918 147.749 10.1777C147.749 9.97031 147.749 9.74415 147.768 9.49915L154.704 8.50023C154.534 6.33268 153.177 5.65417 151.236 5.65417V5.65431ZM163.317 4.50466C163.034 4.46701 162.695 4.42922 162.318 4.42922C160.923 4.42922 159.529 4.73082 158.605 5.14551V14.7957H160.188V6.069C160.66 5.86166 161.413 5.74857 162.111 5.74857C162.431 5.74857 162.752 5.7674 163.016 5.82401L163.317 4.50466ZM169.971 4.50466C169.688 4.46701 169.349 4.42922 168.972 4.42922C167.577 4.42922 166.182 4.73082 165.259 5.14551V14.7957H166.842V6.069C167.313 5.86166 168.067 5.74857 168.764 5.74857C169.085 5.74857 169.405 5.7674 169.669 5.82401L169.971 4.50466ZM178.904 14.2867V7.74643C178.904 5.33389 177.415 4.42922 175.135 4.42922C173.872 4.42922 172.59 4.78729 171.818 5.14551L172.232 6.25752C172.892 5.93709 174.061 5.63549 175.003 5.63549C176.417 5.63549 177.416 6.10665 177.416 7.61452V8.38728C174.343 8.55698 171.214 8.99034 171.214 11.893C171.214 13.8156 172.609 15.0029 175.399 15.0029C176.737 15.0029 178.188 14.6824 178.904 14.2866V14.2867ZM177.415 13.4951C177.057 13.6648 176.134 13.8156 175.361 13.8156C173.589 13.8156 172.703 13.0428 172.703 11.8554C172.703 9.74442 175.154 9.61251 177.415 9.48047V13.4951ZM189.44 14.7957V7.84083C189.44 5.65445 187.989 4.46701 185.652 4.46701C184.804 4.46701 183.899 4.73082 183.239 5.07007V0H181.656V14.7957H183.239V6.31413C183.805 5.97488 184.615 5.74871 185.35 5.74871C186.896 5.74871 187.876 6.465 187.876 7.95391V14.7957H189.44H189.44ZM193.851 14.7957V4.63656H192.286V14.7957H193.851Z" transform="translate(164.913 47.7026)" fill="#4F4F4F"/>
</svg>
